<?xml version="1.0" standalone="no"?>
<!DOCTYPE svg PUBLIC "-//W3C//DTD SVG 20010904//EN"
 "http://www.w3.org/TR/2001/REC-SVG-20010904/DTD/svg10.dtd">
<svg version="1.0" xmlns="http://www.w3.org/2000/svg"
 width="800.000000pt" height="800.000000pt" viewBox="0 0 800.000000 800.000000"
 preserveAspectRatio="xMidYMid meet">
<metadata>
Created by potrace 1.14, written by Peter Selinger 2001-2017
</metadata>
<g transform="translate(0.000000,800.000000) scale(0.100000,-0.100000)"
fill="#000000" stroke="none">
<path d="M3195 7040 c-1152 -6 -1302 -8 -1405 -24 -428 -64 -735 -178 -1015
-375 -103 -72 -334 -303 -406 -406 -160 -226 -259 -468 -311 -755 -26 -146
-36 -478 -19 -642 32 -309 130 -600 277 -825 269 -413 685 -690 1214 -808 292
-65 459 -75 1348 -75 l732 0 0 -959 0 -959 -27 -6 c-16 -3 -174 -30 -353 -61
-179 -30 -331 -57 -337 -60 -10 -3 -13 -70 -13 -285 l0 -280 1175 0 1175 0 0
279 c0 154 -4 282 -8 285 -6 4 -703 126 -718 126 -2 0 -4 261 -4 580 l0 580
819 0 c645 0 822 -3 828 -12 9 -15 24 -56 103 -278 32 -91 75 -210 95 -265 58
-159 83 -229 145 -405 32 -91 64 -180 70 -198 7 -18 10 -35 8 -37 -2 -2 -73
-16 -158 -30 -236 -39 -308 -53 -319 -60 -7 -4 -11 -100 -11 -286 l0 -279 940
0 940 0 0 284 0 284 -112 17 c-62 9 -169 24 -238 34 -114 15 -126 19 -137 41
-7 14 -55 138 -107 275 -261 690 -473 1249 -486 1280 -24 58 -170 445 -170
451 0 3 -6 20 -14 37 -8 18 -53 136 -101 262 -48 127 -90 239 -95 250 -28 71
-47 121 -115 300 -42 110 -83 220 -92 245 -8 25 -21 59 -28 75 -7 17 -45 116
-85 220 -39 105 -114 300 -165 435 -51 135 -137 360 -190 500 -53 140 -139
365 -190 500 -51 135 -137 360 -190 500 -53 140 -121 318 -150 395 l-53 140
-379 0 c-208 0 -958 -2 -1668 -5z m1515 -710 c5 -8 29 -76 55 -150 26 -74 67
-184 90 -245 24 -60 60 -155 80 -210 20 -55 47 -129 60 -165 121 -332 184
-505 225 -620 27 -74 65 -180 85 -235 20 -55 47 -129 60 -165 13 -36 40 -110
60 -165 69 -190 87 -241 157 -440 38 -110 73 -211 78 -225 11 -32 43 -120 131
-360 71 -194 81 -229 67 -230 -5 0 -312 0 -683 0 l-675 0 0 1609 c0 1524 1
1610 18 1614 9 3 55 4 101 4 63 -2 86 -6 91 -17z m-1100 -1245 l0 -1255 -769
0 c-834 0 -897 3 -1091 55 -112 30 -277 107 -364 169 -127 91 -258 251 -340
414 -171 340 -176 851 -13 1195 187 396 486 607 944 666 37 5 420 9 851 10
l782 1 0 -1255z"/>
</g>
</svg>
